<svg width="24" height="24" viewBox="0 0 24 24" fill="none" xmlns="http://www.w3.org/2000/svg">
<path d="M11.9826 20C12.2792 20 12.5409 19.878 12.7416 19.6863C12.9335 19.4946 13.0557 19.2244 13.0557 18.9281V13.0632H18.9269C19.2236 13.0632 19.4853 12.9412 19.6859 12.7495C19.8779 12.5578 20 12.2876 20 11.9913C20 11.3988 19.5202 10.9195 18.9357 10.9282H13.0644V5.06329C13.0644 4.4707 12.5846 3.9914 12.0001 4.00012C11.4068 4.00012 10.927 4.47942 10.9357 5.06329V10.9282H5.06445C4.47121 10.9282 3.99139 11.4075 4.00012 11.9913C4.00012 12.5839 4.47994 13.0632 5.06445 13.0545H10.9357V18.9194C10.9096 19.5207 11.3894 20 11.9826 20Z" fill="#EC5D52"/>
</svg>
