<svg width="42" height="42" viewBox="0 0 42 42" fill="none" xmlns="http://www.w3.org/2000/svg">
<path d="M21 41C32.0457 41 41 32.0457 41 21C41 9.9543 32.0457 1 21 1C9.9543 1 1 9.9543 1 21C1 32.0457 9.9543 41 21 41Z" fill="#7A7A7A" fill-opacity="0.1" stroke="#7A7A7A"/>
<mask id="mask0_309_11211" style="mask-type:alpha" maskUnits="userSpaceOnUse" x="15" y="12" width="15" height="18">
<path d="M18.4889 29.3646C18.4919 29.3628 18.4948 29.3609 18.4978 29.3591L28.3636 23.0235C28.3646 23.0229 28.3656 23.0222 28.3667 23.0216C28.8317 22.7192 29.159 22.2408 29.2884 21.6745C29.4178 21.1081 29.3337 20.5217 29.0516 20.0231C28.8824 19.7241 28.6455 19.4702 28.3666 19.2889C28.3656 19.2882 28.3646 19.2876 28.3636 19.2869L18.4978 12.9514C18.4948 12.9495 18.4919 12.9476 18.4889 12.9458C18.0179 12.6542 17.4692 12.5767 16.9439 12.7276C16.4185 12.8785 15.9794 13.2396 15.7074 13.7446C15.5328 14.0688 15.4385 14.4379 15.4346 14.8122C15.4346 14.8147 15.4346 14.8172 15.4346 14.8197L15.4346 27.4908C15.4346 27.4933 15.4346 27.4958 15.4346 27.4983C15.447 28.7018 16.3704 29.6703 17.4931 29.657C17.8422 29.6529 18.1866 29.5518 18.4889 29.3646Z" fill="white"/>
</mask>
<g mask="url(#mask0_309_11211)">
<path d="M18.4889 29.3646C18.4919 29.3628 18.4948 29.3609 18.4978 29.3591L28.3636 23.0235C28.3646 23.0229 28.3656 23.0222 28.3667 23.0216C28.8317 22.7192 29.159 22.2408 29.2884 21.6745C29.4178 21.1081 29.3337 20.5217 29.0516 20.0231C28.8824 19.7241 28.6455 19.4702 28.3666 19.2889C28.3656 19.2882 28.3646 19.2876 28.3636 19.2869L18.4978 12.9514C18.4948 12.9495 18.4919 12.9476 18.4889 12.9458C18.0179 12.6542 17.4692 12.5767 16.9439 12.7276C16.4185 12.8785 15.9794 13.2396 15.7074 13.7446C15.5329 14.0688 15.4385 14.4379 15.4346 14.8122C15.4346 14.8147 15.4346 14.8172 15.4346 14.8197L15.4346 27.4908C15.4346 27.4933 15.4346 27.4958 15.4346 27.4983C15.447 28.7018 16.3704 29.6703 17.4931 29.657C17.8422 29.6529 18.1866 29.5518 18.4889 29.3646Z" fill="#7A7A7A"/>
</g>
</svg>
