<svg width="20" height="20" viewBox="0 0 20 20" fill="none" xmlns="http://www.w3.org/2000/svg">
<circle cx="10" cy="10" r="9.5" fill="white" stroke="white"/>
<path d="M6.56277 13.4923C6.69253 13.622 6.86041 13.6832 7.03207 13.6871C7.19991 13.6872 7.37153 13.6224 7.50116 13.4928L10.067 10.9269L12.6356 13.4956C12.7654 13.6254 12.9333 13.6865 13.1049 13.6904C13.2728 13.6905 13.4444 13.6257 13.574 13.4961C13.8333 13.2368 13.8331 12.8172 13.5735 12.5653L11.0049 9.99667L13.5707 7.43081C13.83 7.17156 13.8298 6.75195 13.5702 6.50004C13.3107 6.2405 12.8911 6.24027 12.6395 6.49953L10.0736 9.06539L7.50498 6.49673C7.24544 6.2372 6.82584 6.23697 6.57421 6.49623C6.31496 6.75548 6.31519 7.17509 6.57472 7.427L9.14336 9.99566L6.57752 12.5615C6.303 12.8131 6.30323 13.2327 6.56277 13.4923Z" fill="#EA2626"/>
</svg>
